<svg width="32" height="32" viewBox="0 0 32 32" fill="none" xmlns="http://www.w3.org/2000/svg">
<g clip-path="url(#clip0_2005_3252)">
<rect width="32" height="32" rx="4" fill="#393940"/>
<path d="M14.3029 15.41C14.3029 15.41 15.9685 15.2864 15.9685 13.3332C15.9685 11.38 14.6059 10.4268 12.8798 10.4268H7.19995V21.3418H12.8798C12.8798 21.3418 16.3471 21.4513 16.3471 18.1202C16.3471 18.1202 16.4983 15.41 14.3029 15.41ZM12.471 12.3668H12.8798C12.8798 12.3668 13.6518 12.3668 13.6518 13.5024C13.6518 14.638 13.1978 14.8026 12.6828 14.8026H9.70256V12.3668H12.471ZM12.7193 19.4019H9.70256V16.4849H12.8798C12.8798 16.4849 14.0305 16.4699 14.0305 17.9839C14.0305 19.2606 13.171 19.3922 12.7193 19.4019ZM20.9714 13.2039C16.7738 13.2039 16.7775 17.3978 16.7775 17.3978C16.7775 17.3978 16.4895 21.5701 20.9714 21.5701C20.9714 21.5701 24.7062 21.7835 24.7062 18.6676H22.7855C22.7855 18.6676 22.8495 19.841 21.0355 19.841C21.0355 19.841 19.1144 19.9698 19.1144 17.9421H24.7703C24.7703 17.942 25.3892 13.2039 20.9714 13.2039ZM19.0933 16.4849C19.0933 16.4849 19.3278 14.8026 21.0141 14.8026C22.7 14.8026 22.6789 16.4849 22.6789 16.4849H19.0933ZM23.1263 12.4139H18.623V11.0698H23.1263V12.4139Z" fill="#EBEBF2"/>
</g>
<defs>
<clipPath id="clip0_2005_3252">
<rect width="32" height="32" rx="16" fill="white"/>
</clipPath>
</defs>
</svg>
